<?xml version="1.0" encoding="utf-8"?>
<!-- Generator: Adobe Illustrator 19.0.0, SVG Export Plug-In . SVG Version: 6.00 Build 0)  -->
<svg version="1.1" id="Calque_1" xmlns="http://www.w3.org/2000/svg" xmlns:xlink="http://www.w3.org/1999/xlink" x="0px" y="0px"
	 viewBox="0 0 283.5 283.5" style="enable-background:new 0 0 283.5 283.5;" xml:space="preserve">
<style type="text/css">
	.st0{fill:#00AFEC;}
	.st1{fill:#FFFFFF;}
</style>
<g id="Découpe_logo">
	<path class="st0" d="M142.1,0c78.5,0.4,141.8,64.3,141.4,142.7c-0.5,77.8-64.2,141.1-141.7,140.8C63,283.2-0.3,219.6,0,141.2
		C0.3,63.1,64.2-0.4,142.1,0z"/>
	<path id="XMLID_4_" class="st1" d="M93,205.2c22.8-14.8,40.1-33.3,46.5-59.8c4.1-17.1,0.8-34-2.5-50.8c-0.3-1.7-0.7-3.3-1-4.9
		c-2.6-14.5,0.3-17.4,15-15.4c7.7,1.1,14.9,3.7,22.2,6.1c4.7,1.6,5.8,4.3,5.8,9.1c-0.4,25.6-10.8,47.1-26.8,66.3
		c-1.7,2-3.1,4.1-4.9,6.4c1.1,0.5,1.8,1.1,2.2,0.9c17.4-5.6,33.6-13.4,45-28.3c7.5-9.9,11.5-21,8.5-33.8c-0.3-1.4-1-3,0.5-3.8
		c1.5-0.8,2.6,0.7,3.6,1.6c10.3,9.6,13.6,25.6,7.8,38.6c-4.9,11.2-13.5,19.2-23.1,26.3c-23.2,17-49.7,27.3-76.8,36.1
		C108,202.1,101.3,205.6,93,205.2z"/>
	<path id="XMLID_3_" class="st1" d="M52.1,175.4c0-11.7,9-20.9,20.2-20.8c10.9,0.1,20.7,10.1,20.7,21c-0.1,11-10,20.9-20.9,20.8
		C60.8,196.3,52.1,187.1,52.1,175.4z"/>
	<path id="XMLID_2_" class="st1" d="M111.1,160.4c0.4-6.4,0.5-12.6-0.1-18.8c-1.9-19.5-9.2-36.7-23.1-50.8c-1.4-1.4-4.2-2.6-2.9-5.1
		c1.2-2.3,3.8-1.5,5.9-1.3c21.6,2.3,38.5,19,32.4,43.1C120.4,138.7,117.2,149.9,111.1,160.4z"/>
	<path id="XMLID_1_" class="st1" d="M127.4,204.3c12.9-3.7,25.6-7.2,38.2-10.9c8.5-2.5,16.8-5.7,24.9-9.6c20.1-9.8,32.2-26,38-48
		c5.6,17-1.7,37.2-17.1,48.4c-12,8.7-25.7,13-39.9,15.8c-12.7,2.5-25.5,4.5-38.3,6.7C131.3,207,129.2,207.3,127.4,204.3z"/>
</g>
</svg>
